<svg width="22" height="60" viewBox="0 0 22 60" fill="none" xmlns="http://www.w3.org/2000/svg">
<path fill-rule="evenodd" clip-rule="evenodd" d="M19.0439 3.29056C19.6729 3.91959 19.6729 4.93946 19.0439 5.56849C17.7227 6.88968 16.0884 9.14878 14.5447 11.5278C13.0192 13.8788 11.6507 16.2392 10.8626 17.6841C10.4366 18.465 9.45823 18.7528 8.67726 18.3268C7.8963 17.9008 7.60853 16.9224 8.03451 16.1414C8.85716 14.6332 10.2672 12.2017 11.8423 9.77424C13.3993 7.3747 15.1878 4.8687 16.766 3.29056C17.395 2.66153 18.4149 2.66153 19.0439 3.29056Z" fill="#77A90D"/>
<path fill-rule="evenodd" clip-rule="evenodd" d="M2.2483 5.24695C2.46406 4.38392 3.33858 3.85921 4.20161 4.07496C7.04369 4.78548 12.3969 8.65166 15.4115 18.0306C15.6838 18.8775 15.2179 19.7848 14.371 20.057C13.5241 20.3292 12.6168 19.8633 12.3446 19.0164C9.5606 10.3551 4.87351 7.56356 3.42029 7.20025C2.55726 6.9845 2.03255 6.10997 2.2483 5.24695Z" fill="#C1EA1D"/>
<path fill-rule="evenodd" clip-rule="evenodd" d="M11.4621 0C12.3516 0 13.0728 0.721152 13.0728 1.61074V15.302C13.0728 16.1916 12.3516 16.9128 11.4621 16.9128C10.5725 16.9128 9.85132 16.1916 9.85132 15.302V1.61074C9.85132 0.721152 10.5725 0 11.4621 0Z" fill="#9AD51C"/>
<path d="M19.5157 28.1879C19.5157 41.3093 13.8781 58.3893 11.462 58.3893C9.04591 58.3893 3.40833 41.3093 3.40833 28.1879C3.40833 15.0665 5.01906 10.8725 11.462 10.8725C17.905 10.8725 19.5157 15.0665 19.5157 28.1879Z" fill="#FF8718"/>
<path fill-rule="evenodd" clip-rule="evenodd" d="M12.9065 59.4907C12.5833 59.729 12.0875 60 11.462 60C10.8365 60 10.3408 59.729 10.0175 59.4907C9.68368 59.2445 9.39687 58.9331 9.15361 58.6221C8.6655 57.9982 8.18878 57.1622 7.73264 56.2133C6.81227 54.2987 5.85212 51.6621 4.98197 48.6571C3.24265 42.6505 1.79761 34.944 1.79761 28.1879C1.79761 21.6674 2.18002 16.9982 3.54984 13.9495C4.26575 12.3561 5.28095 11.1296 6.6922 10.331C8.07587 9.54792 9.69012 9.26172 11.462 9.26172C13.2339 9.26172 14.8482 9.54792 16.2319 10.331C17.6431 11.1296 18.6583 12.3561 19.3742 13.9495C20.744 16.9982 21.1265 21.6674 21.1265 28.1879C21.1265 34.944 19.6814 42.6505 17.9421 48.6571C17.072 51.6621 16.1118 54.2987 15.1914 56.2133C14.7353 57.1622 14.2586 57.9982 13.7705 58.6221C13.5272 58.9331 13.2404 59.2445 12.9065 59.4907ZM11.462 58.3892C13.8781 58.3892 19.5157 41.3093 19.5157 28.1879C19.5157 15.0665 17.905 10.8725 11.462 10.8725C5.01908 10.8725 3.40835 15.0665 3.40835 28.1879C3.40835 41.3093 9.04593 58.3892 11.462 58.3892Z" fill="#A44703"/>
<path d="M10.2962 12.7179C12.3771 13.2923 13.3655 16.2882 12.5039 19.4095C11.6422 22.5308 8.30793 37.6214 6.22707 37.0469C4.14621 36.4725 4.10679 20.4507 4.9684 17.3294C5.83001 14.2081 8.21535 12.1435 10.2962 12.7179Z" fill="#FFA858"/>
<path fill-rule="evenodd" clip-rule="evenodd" d="M9.85132 56.777C12.5451 52.2213 16.2943 38.8883 16.2943 28.1879C16.2943 16.2367 14.958 11.6915 9.85132 10.9759C10.3513 10.9059 10.8875 10.8725 11.4621 10.8725C17.905 10.8725 19.5157 15.0665 19.5157 28.1879C19.5157 41.3093 13.8782 58.3893 11.4621 58.3893C11.0163 58.3893 10.4608 57.8078 9.85132 56.777Z" fill="#EA6E1B"/>
<path fill-rule="evenodd" clip-rule="evenodd" d="M3.00559 19.7315C3.00559 19.2867 3.36617 18.9262 3.81096 18.9262H8.24049C8.68528 18.9262 9.04586 19.2867 9.04586 19.7315C9.04586 20.1763 8.68528 20.5369 8.24049 20.5369H3.81096C3.36617 20.5369 3.00559 20.1763 3.00559 19.7315Z" fill="#CE5F14"/>
<path fill-rule="evenodd" clip-rule="evenodd" d="M10.6566 22.953C10.6566 22.5082 11.0172 22.1476 11.462 22.1476H15.8915C16.3363 22.1476 16.6969 22.5082 16.6969 22.953C16.6969 23.3978 16.3363 23.7584 15.8915 23.7584H11.462C11.0172 23.7584 10.6566 23.3978 10.6566 22.953Z" fill="#CE5F14"/>
<path fill-rule="evenodd" clip-rule="evenodd" d="M13.0727 15.7047C13.0727 15.2599 13.4333 14.8993 13.8781 14.8993H18.3076C18.7524 14.8993 19.113 15.2599 19.113 15.7047C19.113 16.1495 18.7524 16.5101 18.3076 16.5101H13.8781C13.4333 16.5101 13.0727 16.1495 13.0727 15.7047Z" fill="#CE5F14"/>
<path fill-rule="evenodd" clip-rule="evenodd" d="M5.01901 13.2886C5.01901 12.8438 5.37959 12.4832 5.82438 12.4832H10.2539C10.6987 12.4832 11.0593 12.8438 11.0593 13.2886C11.0593 13.7334 10.6987 14.094 10.2539 14.094H5.82438C5.37959 14.094 5.01901 13.7334 5.01901 13.2886Z" fill="#CE5F14"/>
<path fill-rule="evenodd" clip-rule="evenodd" d="M12.2673 26.9799C12.2673 26.5351 12.6279 26.1745 13.0727 26.1745H17.5022C17.947 26.1745 18.3076 26.5351 18.3076 26.9799C18.3076 27.4247 17.947 27.7852 17.5022 27.7852H13.0727C12.6279 27.7852 12.2673 27.4247 12.2673 26.9799Z" fill="#CE5F14"/>
<path fill-rule="evenodd" clip-rule="evenodd" d="M2.60291 26.1745C2.60291 25.7297 2.96348 25.3691 3.40827 25.3691H7.8378C8.2826 25.3691 8.64317 25.7297 8.64317 26.1745C8.64317 26.6193 8.2826 26.9799 7.8378 26.9799H3.40827C2.96348 26.9799 2.60291 26.6193 2.60291 26.1745Z" fill="#CE5F14"/>
<path fill-rule="evenodd" clip-rule="evenodd" d="M9.04586 31.8121C9.04586 31.3673 9.40643 31.0067 9.85123 31.0067H14.2808C14.7256 31.0067 15.0861 31.3673 15.0861 31.8121C15.0861 32.2569 14.7256 32.6174 14.2808 32.6174H9.85123C9.40643 32.6174 9.04586 32.2569 9.04586 31.8121Z" fill="#CE5F14"/>
<path fill-rule="evenodd" clip-rule="evenodd" d="M13.0727 39.0604C13.0727 38.6156 13.4333 38.255 13.8781 38.255H18.3076C18.7524 38.255 19.113 38.6156 19.113 39.0604C19.113 39.5052 18.7524 39.8658 18.3076 39.8658H13.8781C13.4333 39.8658 13.0727 39.5052 13.0727 39.0604Z" fill="#CE5F14"/>
<path fill-rule="evenodd" clip-rule="evenodd" d="M3.40827 36.6443C3.40827 36.1995 3.76885 35.8389 4.21364 35.8389H8.64317C9.08797 35.8389 9.44854 36.1995 9.44854 36.6443C9.44854 37.0891 9.08797 37.4497 8.64317 37.4497H4.21364C3.76885 37.4497 3.40827 37.0891 3.40827 36.6443Z" fill="#CE5F14"/>
<path fill-rule="evenodd" clip-rule="evenodd" d="M4.21364 43.0872C4.21364 42.6425 4.57422 42.2819 5.01901 42.2819H9.44854C9.89334 42.2819 10.2539 42.6425 10.2539 43.0872C10.2539 43.532 9.89334 43.8926 9.44854 43.8926H5.01901C4.57422 43.8926 4.21364 43.532 4.21364 43.0872Z" fill="#CE5F14"/>
<path fill-rule="evenodd" clip-rule="evenodd" d="M11.462 47.1141C11.462 46.6693 11.8225 46.3087 12.2673 46.3087H16.6969C17.1417 46.3087 17.5022 46.6693 17.5022 47.1141C17.5022 47.5589 17.1417 47.9195 16.6969 47.9195H12.2673C11.8225 47.9195 11.462 47.5589 11.462 47.1141Z" fill="#CE5F14"/>
<path fill-rule="evenodd" clip-rule="evenodd" d="M6.62975 51.1409C6.62975 50.6961 6.99033 50.3356 7.43512 50.3356H11.8647C12.3094 50.3356 12.67 50.6961 12.67 51.1409C12.67 51.5857 12.3094 51.9463 11.8647 51.9463H7.43512C6.99033 51.9463 6.62975 51.5857 6.62975 51.1409Z" fill="#CE5F14"/>
<path fill-rule="evenodd" clip-rule="evenodd" d="M8.24049 55.9731C8.24049 55.5284 8.60107 55.1678 9.04586 55.1678H13.4754C13.9202 55.1678 14.2808 55.5284 14.2808 55.9731C14.2808 56.4179 13.9202 56.7785 13.4754 56.7785H9.04586C8.60107 56.7785 8.24049 56.4179 8.24049 55.9731Z" fill="#CE5F14"/>
<path fill-rule="evenodd" clip-rule="evenodd" d="M9.98337 17.0008L9.97639 17.0114L9.95283 17.047C9.93206 17.0785 9.9017 17.1247 9.86448 17.1819C9.78974 17.2968 9.68878 17.4538 9.58281 17.6238C9.4759 17.7953 9.3691 17.9716 9.28062 18.127C9.2365 18.2045 9.20041 18.2707 9.17283 18.3243C9.14621 18.3759 9.13519 18.401 9.13374 18.4043C9.13358 18.4047 9.13368 18.4044 9.13374 18.4043C8.79851 19.2283 7.85862 19.6248 7.03462 19.2896C6.21061 18.9543 5.81439 18.0146 6.14963 17.1906C6.30956 16.7975 6.6405 16.2541 6.84909 15.9195C6.96899 15.7272 7.08163 15.5521 7.16402 15.4254C7.20537 15.3618 7.23946 15.3099 7.2635 15.2735L7.29174 15.2307L7.30254 15.2145C7.30258 15.2144 7.30294 15.2139 8.64315 16.1074L7.30254 15.2145C7.79599 14.4743 8.79645 14.2737 9.53663 14.7671C10.2768 15.2606 10.4767 16.2607 9.98337 17.0008Z" fill="white"/>
</svg>
